<svg width="16" height="18" viewBox="0 0 16 18" fill="none" xmlns="http://www.w3.org/2000/svg">
<path d="M9.67102 14.625H10.515C10.5704 14.625 10.6253 14.6141 10.6765 14.5929C10.7277 14.5717 10.7742 14.5406 10.8134 14.5014C10.8526 14.4622 10.8837 14.4157 10.9049 14.3645C10.9261 14.3133 10.937 14.2584 10.937 14.203V6.609C10.937 6.49708 10.8926 6.38974 10.8134 6.3106C10.7343 6.23146 10.6269 6.187 10.515 6.187H9.67102C9.5591 6.187 9.45177 6.23146 9.37262 6.3106C9.29348 6.38974 9.24902 6.49708 9.24902 6.609V14.2C9.24863 14.2557 9.25925 14.3109 9.28028 14.3624C9.30131 14.414 9.33233 14.4608 9.37156 14.5003C9.41078 14.5398 9.45744 14.5712 9.50883 14.5926C9.56023 14.614 9.61535 14.625 9.67102 14.625ZM15.437 2.812H12.537L11.344 0.819C11.1939 0.569066 10.9817 0.362263 10.7279 0.218736C10.4742 0.0752084 10.1876 -0.000150144 9.89602 2.2459e-07H6.34902C6.05817 0.00053972 5.77238 0.0762259 5.51938 0.21972C5.26639 0.363214 5.05476 0.569646 4.90502 0.819L3.70902 2.812H0.812023C0.662707 2.812 0.519505 2.87132 0.413922 2.9769C0.308339 3.08248 0.249023 3.22568 0.249023 3.375L0.249023 3.938C0.249288 4.08714 0.308721 4.23009 0.414275 4.33545C0.51983 4.44082 0.66288 4.5 0.812023 4.5H1.37502V16.312C1.37502 16.7595 1.55273 17.1887 1.86907 17.5052C2.18542 17.8218 2.61451 17.9997 3.06202 18H13.187C13.6344 18 14.0635 17.8223 14.3799 17.5059C14.6963 17.1895 14.874 16.7604 14.874 16.313V4.5H15.437C15.5862 4.5 15.7292 4.44082 15.8348 4.33545C15.9403 4.23009 15.9998 4.08714 16 3.938V3.375C16 3.22568 15.9407 3.08248 15.8351 2.9769C15.7295 2.87132 15.5863 2.812 15.437 2.812ZM6.29002 1.79C6.30907 1.7592 6.33573 1.73382 6.36743 1.71631C6.39913 1.69879 6.43481 1.68973 6.47102 1.69H9.77102C9.80724 1.68973 9.84291 1.69879 9.87461 1.71631C9.90631 1.73382 9.93297 1.7592 9.95202 1.79L10.566 2.813H5.67702L6.29002 1.79ZM13.19 16.313H3.06202V4.5H13.187L13.19 16.313ZM5.73302 14.625H6.57702C6.63269 14.625 6.68782 14.614 6.73921 14.5926C6.79061 14.5712 6.83726 14.5398 6.87649 14.5003C6.91571 14.4608 6.94674 14.414 6.96777 14.3624C6.9888 14.3109 6.99942 14.2557 6.99902 14.2V6.609C6.99902 6.49708 6.95456 6.38974 6.87542 6.3106C6.79628 6.23146 6.68894 6.187 6.57702 6.187H5.73302C5.6211 6.187 5.51376 6.23146 5.43462 6.3106C5.35548 6.38974 5.31102 6.49708 5.31102 6.609V14.2C5.31063 14.2557 5.32125 14.3109 5.34228 14.3624C5.36331 14.414 5.39433 14.4608 5.43356 14.5003C5.47278 14.5398 5.51944 14.5712 5.57084 14.5926C5.62223 14.614 5.67735 14.625 5.73302 14.625Z" fill="#E882A5"/>
</svg>
