<svg xmlns="http://www.w3.org/2000/svg" width="32.25" height="42" viewBox="0 0 32.25 42"><g transform="translate(-6.5)"><path d="M29.364,0H7.6C6.991,0,6.5.491,6.5,1.444V41.25A1.129,1.129,0,0,0,7.6,42H37.653a1.129,1.129,0,0,0,1.1-.75V9.733c0-.522-.07-.69-.193-.814L29.83.193A.663.663,0,0,0,29.364,0Z" fill="#fff"/><path d="M37.5.151V9.038h8.887Z" transform="translate(-7.75 -0.038)" fill="#d3dce3"/><path d="M16.75,12.5h-4.5a.75.75,0,0,1,0-1.5h4.5a.75.75,0,0,1,0,1.5Z" transform="translate(-1.25 -2.75)" fill="#797995"/><path d="M19,17.5H12.25a.75.75,0,0,1,0-1.5H19a.75.75,0,0,1,0,1.5Z" transform="translate(-1.25 -4)" fill="#797995"/><path d="M25.25,17.5a.743.743,0,1,1,.533-.217A.789.789,0,0,1,25.25,17.5Z" transform="translate(-4.5 -4.003)" fill="#797995"/><path d="M35.25,17.5h-6a.75.75,0,0,1,0-1.5h6a.75.75,0,0,1,0,1.5Z" transform="translate(-5.5 -4)" fill="#797995"/><path d="M12.25,32.5a.752.752,0,1,1,.533-1.282.775.775,0,0,1,.217.532.743.743,0,0,1-.75.75Z" transform="translate(-1.25 -7.753)" fill="#797995"/><path d="M22.25,32.5h-6a.75.75,0,0,1,0-1.5h6a.75.75,0,0,1,0,1.5Z" transform="translate(-2.25 -7.75)" fill="#797995"/><path d="M42.75,17.5h-1.5a.75.75,0,0,1,0-1.5h1.5a.75.75,0,0,1,0,1.5Z" transform="translate(-8.5 -4)" fill="#797995"/><path d="M28.75,22.5H12.25a.75.75,0,0,1,0-1.5h16.5a.75.75,0,0,1,0,1.5Z" transform="translate(-1.25 -5.25)" fill="#797995"/><path d="M41.75,22.5h-4.5a.75.75,0,0,1,0-1.5h4.5a.75.75,0,0,1,0,1.5Z" transform="translate(-7.5 -5.25)" fill="#797995"/><path d="M15.25,27.5h-3a.75.75,0,0,1,0-1.5h3a.75.75,0,0,1,0,1.5Z" transform="translate(-1.25 -6.5)" fill="#797995"/><path d="M27.75,27.5h-7.5a.75.75,0,0,1,0-1.5h7.5a.75.75,0,0,1,0,1.5Z" transform="translate(-3.25 -6.5)" fill="#797995"/><path d="M41,27.5H34.25a.75.75,0,0,1,0-1.5H41a.75.75,0,0,1,0,1.5Z" transform="translate(-6.75 -6.5)" fill="#797995"/><path d="M37.653,51.75H7.6a1.1,1.1,0,0,1-1.1-1.1V39H38.75V50.653A1.1,1.1,0,0,1,37.653,51.75Z" transform="translate(0 -9.75)" fill="#0096e6"/><g transform="translate(13.149 32.07)"><path d="M21.466,46.492a5.552,5.552,0,0,1-.2,1.595,3.964,3.964,0,0,1-.508,1.108,2.608,2.608,0,0,1-.692.7,3.472,3.472,0,0,1-.743.385,3.071,3.071,0,0,1-.656.164,4.375,4.375,0,0,1-.44.035h-2.86V42.924h2.275a4.325,4.325,0,0,1,1.676.3,3.48,3.48,0,0,1,1.2.8,3.3,3.3,0,0,1,.713,1.143A3.785,3.785,0,0,1,21.466,46.492Zm-3.65,3.086a2.037,2.037,0,0,0,1.8-.8,4.059,4.059,0,0,0,.554-2.318,3.925,3.925,0,0,0-.112-.933,2,2,0,0,0-.436-.835,2.3,2.3,0,0,0-.877-.605,3.775,3.775,0,0,0-1.435-.231H16.6v5.722h1.22Z" transform="translate(-15.366 -42.801)" fill="#fff"/><path d="M31.376,46.626a5.353,5.353,0,0,1-.241,1.681,3.429,3.429,0,0,1-.667,1.21,2.79,2.79,0,0,1-.994.728,3.277,3.277,0,0,1-2.492,0,2.79,2.79,0,0,1-.994-.728,3.436,3.436,0,0,1-.667-1.21,5.974,5.974,0,0,1,0-3.358,3.419,3.419,0,0,1,.667-1.2,2.85,2.85,0,0,1,.994-.733,3.214,3.214,0,0,1,2.492,0,2.85,2.85,0,0,1,.994.733,3.456,3.456,0,0,1,.667,1.2A5.324,5.324,0,0,1,31.376,46.626ZM28.2,49.487a1.805,1.805,0,0,0,.723-.148,1.616,1.616,0,0,0,.615-.487,2.464,2.464,0,0,0,.425-.887,5.329,5.329,0,0,0,.164-1.338,5.231,5.231,0,0,0-.159-1.307,2.624,2.624,0,0,0-.41-.887,1.58,1.58,0,0,0-.595-.5,1.652,1.652,0,0,0-.7-.154,1.851,1.851,0,0,0-.723.143,1.549,1.549,0,0,0-.615.487,2.508,2.508,0,0,0-.425.887,5.233,5.233,0,0,0-.164,1.333,5.3,5.3,0,0,0,.159,1.313,2.571,2.571,0,0,0,.41.887,1.644,1.644,0,0,0,.595.5A1.619,1.619,0,0,0,28.2,49.487Z" transform="translate(-17.795 -42.76)" fill="#fff"/><path d="M40.857,49.671a2.8,2.8,0,0,1-.953.615,3.159,3.159,0,0,1-1.148.2,3.1,3.1,0,0,1-1.246-.246,2.79,2.79,0,0,1-.994-.728,3.436,3.436,0,0,1-.667-1.21,5.974,5.974,0,0,1,0-3.358,3.419,3.419,0,0,1,.667-1.2,2.835,2.835,0,0,1,1-.734,3.052,3.052,0,0,1,1.241-.251,3.175,3.175,0,0,1,1.148.2,2.8,2.8,0,0,1,.953.615l-.851.759a1.554,1.554,0,0,0-.569-.431,1.65,1.65,0,0,0-.651-.133,1.851,1.851,0,0,0-.723.143,1.549,1.549,0,0,0-.615.487,2.508,2.508,0,0,0-.425.887,5.233,5.233,0,0,0-.164,1.333,5.3,5.3,0,0,0,.159,1.313,2.571,2.571,0,0,0,.41.887,1.644,1.644,0,0,0,.595.5,1.6,1.6,0,0,0,.7.159,1.8,1.8,0,0,0,.692-.133,1.626,1.626,0,0,0,.59-.431Z" transform="translate(-20.427 -42.76)" fill="#fff"/></g></g></svg>