<svg width="21" height="18" viewBox="0 0 21 18" fill="none" xmlns="http://www.w3.org/2000/svg">
<path d="M14.4124 12.085L15.5234 10.974C15.5626 10.9349 15.6125 10.9084 15.6668 10.8978C15.7211 10.8871 15.7774 10.8929 15.8284 10.9144C15.8795 10.9358 15.923 10.9719 15.9534 11.0182C15.9839 11.0644 15.9998 11.1187 15.9994 11.174V16.223C15.9994 16.6651 15.8237 17.0891 15.5111 17.4018C15.1985 17.7144 14.7745 17.89 14.3324 17.89H2.11036C1.66842 17.89 1.24456 17.7145 0.931966 17.4021C0.619371 17.0897 0.443624 16.666 0.443359 16.224L0.443359 4.00201C0.443359 3.5599 0.618989 3.13589 0.931612 2.82327C1.24424 2.51064 1.66824 2.33501 2.11036 2.33501H11.6104C11.6655 2.33501 11.7194 2.35128 11.7654 2.3818C11.8113 2.41231 11.8472 2.45571 11.8685 2.50655C11.8899 2.55739 11.8958 2.6134 11.8854 2.66757C11.8751 2.72173 11.849 2.77163 11.8104 2.81101L10.6934 3.92201C10.6671 3.94812 10.6359 3.96866 10.6015 3.98241C10.5672 3.99616 10.5304 4.00282 10.4934 4.00201H2.11036V16.224H14.3324V12.285C14.3314 12.248 14.338 12.2112 14.3518 12.1768C14.3656 12.1424 14.3862 12.1112 14.4124 12.085ZM19.8504 5.08501L10.7324 14.203L7.59336 14.55C7.37972 14.5737 7.1635 14.549 6.96068 14.4778C6.75787 14.4066 6.57366 14.2907 6.42167 14.1387C6.26968 13.9867 6.1538 13.8025 6.08261 13.5997C6.01141 13.3969 5.98672 13.1807 6.01036 12.967L6.35636 9.82501L15.4754 0.706013C15.6637 0.51698 15.8875 0.36699 16.1339 0.264646C16.3803 0.162302 16.6445 0.109619 16.9114 0.109619C17.1782 0.109619 17.4424 0.162302 17.6888 0.264646C17.9352 0.36699 18.159 0.51698 18.3474 0.706013L19.8474 2.20601C20.2283 2.5874 20.4423 3.10443 20.4423 3.64351C20.4423 4.18259 20.2283 4.69963 19.8474 5.08101L19.8504 5.08501ZM16.4194 6.15401L14.4024 4.13701L7.95036 10.592L7.69736 12.859L9.96436 12.606L16.4194 6.15401ZM18.6694 3.38501L17.1694 1.88501C17.1356 1.85121 17.0956 1.82439 17.0515 1.80609C17.0074 1.78779 16.9601 1.77837 16.9124 1.77837C16.8646 1.77837 16.8173 1.78779 16.7732 1.80609C16.7291 1.82439 16.6891 1.85121 16.6554 1.88501L15.5824 2.96001L17.5994 4.97701L18.6734 3.90401C18.7409 3.83428 18.7784 3.74079 18.7776 3.64369C18.7769 3.5466 18.738 3.4537 18.6694 3.38501Z" fill="#00D18B"/>
</svg>
