<?xml version="1.0" encoding="utf-8"?>
<!-- Generator: Adobe Illustrator 23.1.0, SVG Export Plug-In . SVG Version: 6.00 Build 0)  -->
<svg version="1.1" id="Layer_1" xmlns="http://www.w3.org/2000/svg" xmlns:xlink="http://www.w3.org/1999/xlink" x="0px" y="0px"
	 viewBox="0 0 794.3 208.5" style="enable-background:new 0 0 794.3 208.5;" xml:space="preserve">
<style type="text/css">
	.st0{fill:#F99012;}
</style>
<g id="Layer_1-2">
	<g>
		<g>
			<path d="M56.6,149.1L56.6,149.1c-17.9-1.8-27.8-12.3-29-23.8V65h41.8V46.4H27.6V22.7H4v96.1h0.1c0.6,30.3,22.2,49.8,54,49.8
				c4.8,0,9.5-0.5,14.2-1.5C65.6,162.5,60.2,156.3,56.6,149.1L56.6,149.1z"/>
			<polygon points="321.6,22.7 270.9,22.7 270.9,32.9 290.6,32.9 290.6,89.6 302,89.6 302,32.9 321.6,32.9 			"/>
			<path d="M342.9,43.7L342.9,43.7c-14,0-23.3,10.1-23.3,23.9s9.9,23.3,24.7,23.3c6.8,0.2,13.4-1.9,18.8-5.9l-3.2-7.4
				c-4,3.1-8.8,4.8-13.8,4.7c-9.8,0-15-5.3-15.7-11.1h34.3v-4.3C364.7,54.4,357.4,43.7,342.9,43.7L342.9,43.7z M330.5,62.7
				c0.5-6.3,5.9-11.1,12.3-10.9c5.9-0.2,10.9,4.5,11.1,10.4c0,0.2,0,0.3,0,0.5L330.5,62.7L330.5,62.7z"/>
			<path d="M392.9,43.7L392.9,43.7c-5.8-0.1-11.5,1.2-16.8,3.6l3.2,7.6c4-1.7,8.2-2.5,12.4-2.5c7.5,0,9.8,2.6,9.8,6.9v5.2
				c-3.8-2.8-8.4-4.2-13-4c-11,0-17.6,6.8-17.6,14.6s6.2,15.8,20.8,15.8c8.5,0,16.3-2.9,19.7-6V61.4
				C411.5,50.6,407.7,43.7,392.9,43.7L392.9,43.7z M401.5,80.1c-3,1.6-6.3,2.4-9.6,2.3c-6.9,0-10-3.6-10-7.1c0-3.5,3.1-6.9,9-6.9
				c3.9,0,7.7,1.4,10.6,3.8L401.5,80.1L401.5,80.1z"/>
			<path d="M445.2,82.3L445.2,82.3c-7.7-0.1-14-6.5-13.8-14.3c0-0.3,0-0.5,0-0.6c0-9.6,6.7-14.9,13.8-14.9c4.1,0.1,7.8,1.6,10.8,4.3
				l4-7.8c-4.3-3.4-9.7-5.2-15.2-5.2c-13-0.2-23.7,10.3-23.9,23.3c-0.2,12.9,10,23.5,22.9,24c6.5,0.3,12.9-2,17.6-6.5l-3.3-7.3
				C454.7,80.6,450,82.5,445.2,82.3L445.2,82.3z"/>
			<path d="M494.9,43.7L494.9,43.7c-5.3,0.1-10.4,2.2-14.3,5.9V17h-10.4v72.6h10.4V58c2.6-3,6.3-4.9,10.3-5.1
				c7.3,0,8.6,4.6,8.6,12.4v24.3H510V59.7C510,48.5,504.6,43.7,494.9,43.7L494.9,43.7z"/>
			<path d="M542.9,43.7c-14,0-23.3,10.1-23.3,23.9s9.9,23.3,24.7,23.3c6.8,0.2,13.4-1.9,18.8-5.9l-3.2-7.4c-4,3.1-8.8,4.8-13.8,4.7
				c-9.8,0-15-5.3-15.7-11.1h34.3v-4.3C564.7,54.4,557.4,43.7,542.9,43.7L542.9,43.7z M530.5,62.7c0.5-6.3,5.9-11.1,12.3-10.9
				c5.9-0.2,10.9,4.5,11.1,10.4c0,0.2,0,0.3,0,0.5L530.5,62.7L530.5,62.7z"/>
			<path d="M585,51.8L585,51.8v-6.9h-10.4v44.7H585V64.7c0-5.6,2.9-11.3,7.9-11.3c2.2,0.1,4.2,0.8,5.9,2.2l3.8-9.7
				c-2.3-1.4-5.1-2.3-7.9-2.3C589.5,43.7,585.9,49.7,585,51.8L585,51.8z"/>
			<path d="M619.4,55.9L619.4,55.9c0-2.7,2.5-4.5,5.9-4.5c3.6,0.3,6.9,1.8,9.5,4.3l3.9-7.3c-4.1-3.2-9.3-5-14.6-5
				c-9.7,0-15.6,6.1-15.6,12.8c0,12.4,19.7,13.3,19.7,21.6c0,2.9-2.5,5.1-6.7,5.1c-4.6-0.3-9-2.3-12.4-5.4l-3.9,7.5
				c4.8,3.8,10.7,5.9,16.8,5.9c10.2,0,16.7-5.6,16.7-13.5C638.7,63.7,619.4,63.4,619.4,55.9L619.4,55.9z"/>
			<path d="M650.6,17.1c-3.7-0.1-6.8,2.9-6.8,6.6c0,2.7,1.6,5,4.1,6.1l-3.6,11h5.9l6.1-13.5c0.5-1.1,0.8-2.3,0.8-3.5
				C657.1,20.1,654.2,17.2,650.6,17.1L650.6,17.1z"/>
		</g>
		<g>
			<path class="st0" d="M187.8,139.6c-0.2,0-0.4,0-0.5,0c-7.9,0.1-14.3,6.5-14.3,14.3c0.4,7.7,6.6,14,14.3,14.3
				c7.8-0.2,14.1-6.5,14.3-14.3C201.7,146.2,195.5,139.8,187.8,139.6L187.8,139.6z"/>
			<path class="st0" d="M136.6,71.6c-6.8-4.5-14.7-6.8-22.7-6.6c-30.1,0-51.2,21.5-51.2,52.9c0,33.4,26.4,50.6,53.9,50.6
				c15.1,0.1,30-4.1,42.9-12.2V22.7h-22.9V71.6L136.6,71.6z M108.9,149.5c-8.4,0-17.5-3.5-22.2-8.7V89c6-3.5,13-5.3,20-5
				c15.9,0,29.9,12.6,29.9,31.6C136.6,135.8,125.7,149.5,108.9,149.5L108.9,149.5z"/>
			<path class="st0" d="M298.4,101.9H279v67h17.6c22.8,0,37.9-12.2,37.9-33.4S318.3,101.9,298.4,101.9z M298.2,158.6h-7.8v-46.5h9.2
				c0.7,0,1.5,0,2.3,0c12.1,0.6,21.4,10.9,20.8,23C322.6,152,311.5,158.6,298.2,158.6L298.2,158.6z"/>
			<rect x="344.9" y="124.2" class="st0" width="10.4" height="44.7"/>
			<path class="st0" d="M378.5,131.1v-6.9h-10.4v44.7h10.4V144c0-5.6,2.9-11.3,7.9-11.3c2.2,0.1,4.2,0.8,5.9,2.2l3.8-9.7
				c-2.3-1.4-5.1-2.3-7.9-2.3C383,123,379.5,129,378.5,131.1L378.5,131.1z"/>
			<path class="st0" d="M422.6,123c-14,0-23.3,10.1-23.3,23.9s9.9,23.3,24.7,23.3c6.8,0.2,13.4-1.9,18.8-5.9l-3.2-7.5
				c-4,3.1-8.8,4.8-13.8,4.7c-9.8,0-15-5.3-15.7-11.1h34.3V146C444.4,133.8,437.1,123,422.6,123L422.6,123z M410.2,142.1
				c0.5-6.3,5.9-11.1,12.3-10.9c0.2,0,0.3,0,0.5,0c5.9,0.1,10.7,5,10.6,10.9H410.2L410.2,142.1z"/>
			<path class="st0" d="M476.2,161.6c-0.3,0-0.5,0-0.7,0c-7.7-0.5-13.6-7.2-13.1-14.9c0-9.6,6.7-14.9,13.8-14.9
				c4,0.1,7.8,1.6,10.8,4.3l4-7.8c-4.3-3.4-9.7-5.2-15.2-5.2c-12.9-0.2-23.5,10-24,22.9c-0.5,13.1,9.8,24,22.9,24.3
				c6.5,0.3,12.9-2,17.6-6.5l-3.3-7.2C485.6,159.9,481,161.8,476.2,161.6L476.2,161.6z"/>
			<polygon class="st0" points="515.9,109 505.5,109 505.5,124.3 497.1,124.3 497.1,132.8 505.5,132.8 505.5,168.9 515.9,168.9 
				515.9,132.8 526.9,132.8 526.9,124.3 515.9,124.3 			"/>
			<path class="st0" d="M556.6,123c-13.1-0.3-23.9,10.1-24.1,23.1c-0.3,13.1,10.1,23.9,23.1,24.1c0.2,0,0.4,0,0.5,0
				c13.1,0,23.6-10.5,23.6-23.6C579.7,133.8,569.5,123.3,556.6,123L556.6,123z M568.7,146.7c0,9.1-5.2,14.9-13.1,14.9
				c-0.1,0-0.1,0-0.2,0c-7.7-0.5-13.5-6.9-13.1-14.6c0-9.2,5.8-15.2,13.4-15.2C562.8,131.7,568.7,137.7,568.7,146.7L568.7,146.7
				L568.7,146.7z"/>
			<path class="st0" d="M600,131.1v-6.9h-10.4v44.7H600V144c0-5.6,2.9-11.3,7.9-11.3c2.2,0.1,4.2,0.8,5.9,2.2l3.8-9.7
				c-2.3-1.4-5.1-2.3-7.9-2.3C604.5,123,600.9,129,600,131.1L600,131.1z"/>
			<polygon class="st0" points="656.7,124.2 643.6,152.4 630.4,124.2 618.8,124.2 637.6,163.1 621.9,191.5 633.7,191.5 668.8,124.2 
							"/>
			<path class="st0" d="M350.1,103.1c-0.2,0-0.4,0-0.5,0c-3.5,0.2-6.3,3.2-6.1,6.8l0,0c0,0.1,0,0.2,0,0.3c0.1,3.7,3.2,6.7,6.8,6.6
				s6.7-3.2,6.6-6.8c0-0.2,0-0.5,0-0.6C356.6,105.6,353.6,102.9,350.1,103.1L350.1,103.1z"/>
		</g>
	</g>
</g>
</svg>
