<?xml version="1.0" encoding="utf-8"?>
<!-- Generator: Adobe Illustrator 23.1.0, SVG Export Plug-In . SVG Version: 6.00 Build 0)  -->
<svg version="1.1" id="Layer_1" xmlns="http://www.w3.org/2000/svg" xmlns:xlink="http://www.w3.org/1999/xlink" x="0px" y="0px"
	 viewBox="0 0 31.9 31.9" style="enable-background:new 0 0 31.9 31.9;" xml:space="preserve">
<path d="M29.7,17.6H2.9c-0.7,0-1.2-0.9-1.2-2.2s0.5-2.2,1.2-2.2h26.8c0.7,0,1.2,0.9,1.2,2.2S30.4,17.6,29.7,17.6L29.7,17.6z"/>
<path d="M29.7,7.2H2.9C2.2,7.2,1.7,6.3,1.7,5C1.6,3.7,2.2,2.8,2.9,2.8h26.8c0.7,0,1.2,0.9,1.2,2.2S30.4,7.2,29.7,7.2L29.7,7.2z"/>
<path d="M2.6,24.4h26.8c0.7,0,1.2,0.9,1.2,2.2s-0.5,2.2-1.2,2.2H2.6c-0.7,0-1.2-0.9-1.2-2.2C1.3,25.3,1.9,24.4,2.6,24.4z"/>
</svg>
