<svg xmlns="http://www.w3.org/2000/svg" width="32.25" height="42" viewBox="0 0 32.25 42"><g transform="translate(-6.5)"><path d="M29.364,0H7.6C6.991,0,6.5.491,6.5,1.444V41.25A1.129,1.129,0,0,0,7.6,42H37.653a1.129,1.129,0,0,0,1.1-.75V9.733c0-.522-.07-.69-.193-.814L29.83.193A.663.663,0,0,0,29.364,0Z" fill="#fff"/><path d="M37.5.151V9.038h8.887Z" transform="translate(-7.75 -0.038)" fill="#d3dce3"/><path d="M18.99,26.72h0a1.2,1.2,0,0,1-.725-.244,1.8,1.8,0,0,1-.836-1.681c.137-1.221,1.646-2.5,4.489-3.8a50.345,50.345,0,0,0,2.841-8.062c-.748-1.629-1.476-3.743-.946-4.982a1.439,1.439,0,0,1,.85-.911,3.682,3.682,0,0,1,.762-.129c.378,0,.71.487.946.787.221.282.723.88-.28,5.1a23.966,23.966,0,0,0,3.816,5.671,14.591,14.591,0,0,1,2.519-.268c1.174,0,1.886.274,2.177.838a1.518,1.518,0,0,1-.292,1.62,1.993,1.993,0,0,1-1.665.893,4.986,4.986,0,0,1-3.158-1.714,35.936,35.936,0,0,0-6.621,2.116,21.28,21.28,0,0,1-1.787,3.188C20.309,26.217,19.646,26.72,18.99,26.72Zm2-3.844c-1.6.9-2.256,1.641-2.3,2.058-.007.069-.028.25.323.519C19.118,25.417,19.771,25.119,20.987,22.875Zm10.228-3.331c.611.47.761.708,1.16.708a1.131,1.131,0,0,0,.908-.331,1.187,1.187,0,0,0,.172-.311c-.092-.049-.214-.148-.881-.148A10.966,10.966,0,0,0,31.214,19.544Zm-5.6-4.937a53.469,53.469,0,0,1-2.006,5.673,37.474,37.474,0,0,1,4.872-1.515A25.673,25.673,0,0,1,25.612,14.608Zm-.455-6.347a1.8,1.8,0,0,0,.072,2.412C25.94,9.087,25.189,8.25,25.157,8.261Z" transform="translate(-2.73 -1.727)" fill="#cc4b4c"/><path d="M37.653,51.75H7.6a1.1,1.1,0,0,1-1.1-1.1V39H38.75V50.653A1.1,1.1,0,0,1,37.653,51.75Z" transform="translate(0 -9.75)" fill="#cc4b4c"/><g transform="translate(13.433 32.193)"><path d="M16.975,50.481H15.744V42.924h2.174a3.051,3.051,0,0,1,.953.154,2.592,2.592,0,0,1,.846.461,2.409,2.409,0,0,1,.605.743,2.059,2.059,0,0,1,.231.979,2.679,2.679,0,0,1-.195,1.041,2.176,2.176,0,0,1-.544.785,2.45,2.45,0,0,1-.841.492,3.235,3.235,0,0,1-1.087.174h-.913v2.728Zm0-6.624v2.994H18.1a1.34,1.34,0,0,0,.446-.077,1.124,1.124,0,0,0,.405-.251,1.228,1.228,0,0,0,.3-.487,2.306,2.306,0,0,0,.112-.774,2.094,2.094,0,0,0-.051-.425,1.228,1.228,0,0,0-.21-.461,1.243,1.243,0,0,0-.446-.369,1.658,1.658,0,0,0-.759-.148h-.923Z" transform="translate(-15.744 -42.924)" fill="#fff"/><path d="M30.185,46.492a5.552,5.552,0,0,1-.2,1.595,3.964,3.964,0,0,1-.508,1.108,2.608,2.608,0,0,1-.692.7,3.472,3.472,0,0,1-.743.385,3.071,3.071,0,0,1-.656.164,4.37,4.37,0,0,1-.441.035h-2.86V42.924H26.36a4.325,4.325,0,0,1,1.676.3,3.48,3.48,0,0,1,1.2.8,3.3,3.3,0,0,1,.712,1.143A3.785,3.785,0,0,1,30.185,46.492Zm-3.65,3.086a2.037,2.037,0,0,0,1.8-.8,4.059,4.059,0,0,0,.553-2.318,3.925,3.925,0,0,0-.112-.933,2,2,0,0,0-.436-.835,2.3,2.3,0,0,0-.877-.605,3.775,3.775,0,0,0-1.435-.231h-.718v5.722h1.22Z" transform="translate(-17.829 -42.924)" fill="#fff"/><path d="M35.849,43.857v2.379h3.158v.841H35.849v3.4H34.6V42.924h4.727v.933Z" transform="translate(-20.458 -42.924)" fill="#fff"/></g></g></svg>