<svg xmlns="http://www.w3.org/2000/svg" width="32.25" height="42" viewBox="0 0 32.25 42"><g transform="translate(-6.5)"><path d="M29.364,0H7.6C6.991,0,6.5.491,6.5,1.444V41.25A1.129,1.129,0,0,0,7.6,42H37.653a1.129,1.129,0,0,0,1.1-.75V9.733c0-.522-.07-.69-.193-.814L29.83.193A.663.663,0,0,0,29.364,0Z" fill="#fff"/><path d="M37.653,51.75H7.6a1.1,1.1,0,0,1-1.1-1.1V39H38.75V50.653A1.1,1.1,0,0,1,37.653,51.75Z" transform="translate(0 -9.75)" fill="#20d99b"/><path d="M37.5.151V9.038h8.887Z" transform="translate(-7.75 -0.038)" fill="#d3dce3"/><g transform="translate(13.433 32.07)"><path d="M16.975,50.481H15.744V42.924h2.174a3.051,3.051,0,0,1,.953.154,2.592,2.592,0,0,1,.846.461,2.409,2.409,0,0,1,.605.743,2.059,2.059,0,0,1,.231.979,2.679,2.679,0,0,1-.195,1.041,2.176,2.176,0,0,1-.544.785,2.45,2.45,0,0,1-.841.492,3.235,3.235,0,0,1-1.087.174h-.913v2.728Zm0-6.624v2.994H18.1a1.34,1.34,0,0,0,.446-.077,1.124,1.124,0,0,0,.405-.251,1.228,1.228,0,0,0,.3-.487,2.306,2.306,0,0,0,.112-.774,2.094,2.094,0,0,0-.051-.425,1.228,1.228,0,0,0-.21-.461,1.243,1.243,0,0,0-.446-.369,1.658,1.658,0,0,0-.759-.148h-.923Z" transform="translate(-15.744 -42.801)" fill="#fff"/><path d="M29.494,42.924v7.557H28.243L25.28,45.272v5.209H24.029V42.924H25.28l2.963,5.209V42.924Z" transform="translate(-17.815 -42.801)" fill="#fff"/><path d="M39.28,46.544v2.922a2.207,2.207,0,0,1-.528.487,3.227,3.227,0,0,1-1.282.488,4.572,4.572,0,0,1-.682.051,3.1,3.1,0,0,1-1.246-.246,2.79,2.79,0,0,1-.994-.728,3.436,3.436,0,0,1-.667-1.21,5.974,5.974,0,0,1,0-3.358,3.419,3.419,0,0,1,.667-1.2,2.835,2.835,0,0,1,1-.733,3.052,3.052,0,0,1,1.241-.251,3.175,3.175,0,0,1,1.148.2,2.8,2.8,0,0,1,.953.615l-.851.759a1.463,1.463,0,0,0-.564-.431,1.689,1.689,0,0,0-.656-.133,1.851,1.851,0,0,0-.723.143,1.549,1.549,0,0,0-.615.487,2.508,2.508,0,0,0-.425.887,5.233,5.233,0,0,0-.164,1.333,5.56,5.56,0,0,0,.159,1.333,2.735,2.735,0,0,0,.41.923,1.747,1.747,0,0,0,.595.533,1.493,1.493,0,0,0,.7.174c.075,0,.175-.005.3-.016a3.684,3.684,0,0,0,.379-.051,2.467,2.467,0,0,0,.364-.1.522.522,0,0,0,.257-.174V47.383H36.778v-.841h2.5Z" transform="translate(-20.218 -42.76)" fill="#fff"/></g><circle cx="3.427" cy="3.427" r="3.427" transform="translate(12.397 7.397)" fill="#6fe9c0"/><path d="M6.5,33.875H38.75v-8.25L31.25,18.5l-7.875,8.625-4.112-4.112Z" transform="translate(0 -4.625)" fill="#6fe9c0"/></g></svg>