<svg xmlns="http://www.w3.org/2000/svg" width="32.25" height="42" viewBox="0 0 32.25 42"><g transform="translate(-6.5)"><path d="M29.364,0H7.6C6.991,0,6.5.491,6.5,1.444V41.25A1.129,1.129,0,0,0,7.6,42H37.653a1.129,1.129,0,0,0,1.1-.75V9.733c0-.522-.07-.69-.193-.814L29.83.193A.663.663,0,0,0,29.364,0Z" transform="translate(0 0)" fill="#fff"/><path d="M37.5.151V9.038h8.887Z" transform="translate(-7.75 -0.038)" fill="#d3dce3"/><path d="M37.653,51.75H7.6a1.1,1.1,0,0,1-1.1-1.1V39H38.75V50.653A1.1,1.1,0,0,1,37.653,51.75Z" transform="translate(0 -9.75)" fill="#f6712e"/><g transform="translate(13.58 32.193)"><path d="M17.171,50.481H15.94V42.924h2.174a3.051,3.051,0,0,1,.953.154,2.592,2.592,0,0,1,.846.461,2.409,2.409,0,0,1,.605.743,2.059,2.059,0,0,1,.231.979,2.679,2.679,0,0,1-.195,1.041,2.175,2.175,0,0,1-.544.784,2.45,2.45,0,0,1-.841.492,3.235,3.235,0,0,1-1.087.174H17.17v2.728Zm0-6.624v2.994H18.3a1.34,1.34,0,0,0,.446-.077,1.124,1.124,0,0,0,.405-.251,1.228,1.228,0,0,0,.3-.487,2.306,2.306,0,0,0,.112-.774,2.094,2.094,0,0,0-.051-.425,1.228,1.228,0,0,0-.21-.461,1.243,1.243,0,0,0-.446-.369,1.658,1.658,0,0,0-.759-.148h-.923Z" transform="translate(-15.94 -42.924)" fill="#fff"/><path d="M25.443,50.481H24.212V42.924h2.174a3.051,3.051,0,0,1,.953.154,2.592,2.592,0,0,1,.846.461,2.409,2.409,0,0,1,.605.743,2.059,2.059,0,0,1,.231.979,2.679,2.679,0,0,1-.195,1.041,2.175,2.175,0,0,1-.544.784,2.45,2.45,0,0,1-.841.492,3.235,3.235,0,0,1-1.087.174h-.913v2.728Zm0-6.624v2.994h1.128a1.34,1.34,0,0,0,.446-.077,1.124,1.124,0,0,0,.405-.251,1.228,1.228,0,0,0,.3-.487,2.306,2.306,0,0,0,.112-.774,2.094,2.094,0,0,0-.051-.425,1.228,1.228,0,0,0-.21-.461,1.243,1.243,0,0,0-.446-.369,1.658,1.658,0,0,0-.759-.148h-.923Z" transform="translate(-18.008 -42.924)" fill="#fff"/><path d="M37.688,42.924v.841H35.432v6.716H34.192V43.765H31.936v-.841Z" transform="translate(-19.939 -42.924)" fill="#fff"/></g><path d="M33.5,26h-18V14h18ZM17,24.5H32v-9H17Z" transform="translate(-2.25 -3.5)" fill="#797995"/><path d="M20.249,33.25a.751.751,0,0,1-.643-1.136l2.25-3.75a.75.75,0,1,1,1.286.772l-2.25,3.75A.748.748,0,0,1,20.249,33.25Z" transform="translate(-3.25 -7)" fill="#797995"/><path d="M33.5,33.25a.749.749,0,0,1-.644-.364l-2.25-3.75a.75.75,0,0,1,1.286-.772l2.25,3.75A.749.749,0,0,1,33.5,33.25Z" transform="translate(-6 -7)" fill="#797995"/><path d="M27.25,14.75A.75.75,0,0,1,26.5,14V11.75a.75.75,0,0,1,1.5,0V14A.75.75,0,0,1,27.25,14.75Z" transform="translate(-5 -2.75)" fill="#797995"/><rect width="15" height="9" transform="translate(14.75 12)" fill="#d3dce3"/></g></svg>