<svg width="21" height="21" viewBox="0 0 21 21" fill="none" xmlns="http://www.w3.org/2000/svg">
<path d="M0.5 10.5C0.5 7.84784 1.55335 5.3043 3.42871 3.42893C5.30407 1.55357 7.84784 0.5 10.5 0.5C13.1522 0.5 15.6959 1.55357 17.5713 3.42893C19.4467 5.3043 20.5 7.84784 20.5 10.5C20.5 13.1522 19.4467 15.6957 17.5713 17.5711C15.6959 19.4464 13.1522 20.5 10.5 20.5C7.84784 20.5 5.30407 19.4464 3.42871 17.5711C1.55335 15.6957 0.5 13.1522 0.5 10.5ZM2.43457 10.5C2.43457 11.5591 2.64345 12.6079 3.04883 13.5864C3.45421 14.5649 4.04883 15.454 4.79785 16.2028C5.54688 16.9517 6.43546 17.5456 7.41406 17.9507C8.39266 18.3559 9.44183 18.5643 10.501 18.564C12.6397 18.564 14.6908 17.7144 16.2031 16.2021C17.7154 14.6898 18.5654 12.6387 18.5654 10.5C18.5656 9.44085 18.3564 8.39205 17.9512 7.4135C17.5459 6.43495 16.9521 5.54582 16.2031 4.79689C15.4542 4.04796 14.5655 3.4539 13.5869 3.04864C12.6084 2.64339 11.5591 2.43487 10.5 2.435C9.4406 2.43447 8.39101 2.6427 7.41211 3.04778C6.43321 3.45286 5.54417 4.04686 4.79492 4.79583C4.04567 5.5448 3.45134 6.43406 3.0459 7.41281C2.64045 8.39156 2.43151 9.4406 2.43164 10.5H2.43457ZM8.55176 17.059C8.41613 17.0585 8.28633 17.0044 8.19043 16.9085C8.09452 16.8126 8.04057 16.6826 8.04004 16.547V15.322C8.04057 15.1864 8.09452 15.0564 8.19043 14.9605C8.28633 14.8646 8.41613 14.8105 8.55176 14.81H9.06348V11.11H8.55176C8.41613 11.1095 8.28633 11.0554 8.19043 10.9595C8.09452 10.8636 8.04057 10.7336 8.04004 10.598V9.372C8.04057 9.23637 8.09452 9.10645 8.19043 9.01054C8.28633 8.91464 8.41613 8.86053 8.55176 8.86H11.4229C11.5584 8.86053 11.6884 8.91467 11.7842 9.0106C11.8799 9.10654 11.9333 9.23646 11.9336 9.372V14.81H12.4463C12.5138 14.8096 12.5801 14.8225 12.6426 14.8481C12.7051 14.8736 12.7626 14.9113 12.8105 14.9588C12.8585 15.0064 12.8968 15.063 12.9229 15.1253C12.9489 15.1876 12.9618 15.2545 12.9619 15.322V16.546C12.9618 16.6135 12.9489 16.6804 12.9229 16.7427C12.8968 16.805 12.8585 16.8616 12.8105 16.9092C12.7626 16.9567 12.7051 16.9944 12.6426 17.0199C12.5801 17.0455 12.5138 17.0584 12.4463 17.058L8.55176 17.059ZM8.65234 5.786C8.6534 5.29648 8.84791 4.82736 9.19434 4.4815C9.54076 4.13564 10.0105 3.94126 10.5 3.941C10.7422 3.94113 10.9824 3.98896 11.2061 4.08175C11.4297 4.17454 11.6326 4.31048 11.8037 4.4818C11.9748 4.65313 12.1106 4.85648 12.2031 5.08026C12.2957 5.30403 12.3429 5.54384 12.3428 5.786C12.3428 6.27489 12.1493 6.74376 11.8037 7.08955C11.4581 7.43534 10.9889 7.62973 10.5 7.63C10.01 7.63053 9.53946 7.43651 9.19238 7.09056C8.84531 6.74462 8.65047 6.27504 8.64941 5.785L8.65234 5.786Z" fill="#2697FF"/>
</svg>
