<svg width="20" height="19" viewBox="0 0 20 19" fill="none" xmlns="http://www.w3.org/2000/svg">
<path d="M8.83635 0.736068L6.54235 5.39107L1.40635 6.14007C1.19872 6.17047 1.00373 6.25834 0.843412 6.39375C0.683097 6.52915 0.563852 6.7067 0.499149 6.90632C0.434446 7.10595 0.426865 7.31969 0.477264 7.52339C0.527663 7.7271 0.634031 7.91264 0.784351 8.05907L4.50035 11.6801L3.62135 16.7951C3.58586 17.0018 3.60892 17.2144 3.68794 17.4087C3.76695 17.603 3.89877 17.7713 4.06847 17.8946C4.23817 18.0179 4.43899 18.0912 4.64821 18.1063C4.85743 18.1215 5.0667 18.0777 5.25235 17.9801L9.84235 15.5641L14.4424 17.9781C14.628 18.0753 14.8372 18.1187 15.0462 18.1034C15.2553 18.0882 15.4559 18.0148 15.6255 17.8916C15.7951 17.7684 15.9269 17.6003 16.006 17.4062C16.0851 17.2121 16.1084 16.9997 16.0734 16.7931L15.1944 11.6781L18.9104 8.05707C19.0607 7.91064 19.167 7.7251 19.2174 7.52139C19.2678 7.31769 19.2603 7.10395 19.1956 6.90432C19.1309 6.7047 19.0116 6.52715 18.8513 6.39175C18.691 6.25634 18.496 6.16847 18.2884 6.13807L13.1524 5.38907L10.8544 0.736068C10.7612 0.548044 10.6174 0.389784 10.4391 0.279138C10.2608 0.168493 10.0552 0.109863 9.84535 0.109863C9.63552 0.109863 9.42987 0.168493 9.25159 0.279138C9.07331 0.389784 8.92949 0.548044 8.83635 0.736068Z" fill="#FFA700"/>
</svg>
