<svg width="20" height="19" viewBox="0 0 20 19" fill="none" xmlns="http://www.w3.org/2000/svg">
<path d="M18.2863 6.13907L13.1503 5.39007L10.8553 0.736068C10.7622 0.548044 10.6184 0.389784 10.4401 0.279138C10.2618 0.168493 10.0562 0.109863 9.84633 0.109863C9.6365 0.109863 9.43085 0.168493 9.25257 0.279138C9.07428 0.389784 8.93046 0.548044 8.83733 0.736068L6.54333 5.39107L1.40733 6.14007C1.1997 6.17047 1.0047 6.25834 0.844388 6.39375C0.684074 6.52915 0.564828 6.7067 0.500125 6.90632C0.435422 7.10595 0.427841 7.31969 0.47824 7.52339C0.528639 7.7271 0.635008 7.91264 0.785327 8.05907L4.50133 11.6801L3.62233 16.7951C3.58683 17.0018 3.6099 17.2144 3.68891 17.4087C3.76793 17.603 3.89974 17.7713 4.06944 17.8946C4.23915 18.0179 4.43997 18.0912 4.64918 18.1063C4.8584 18.1215 5.06768 18.0777 5.25333 17.9801L9.84333 15.5641L14.4433 17.9781C14.629 18.0753 14.8382 18.1187 15.0472 18.1034C15.2563 18.0882 15.4569 18.0148 15.6265 17.8916C15.796 17.7684 15.9278 17.6003 16.007 17.4062C16.0861 17.2121 16.1094 16.9997 16.0743 16.7931L15.1953 11.6781L18.9113 8.05707C19.0616 7.91064 19.168 7.7251 19.2184 7.52139C19.2688 7.31769 19.2612 7.10395 19.1965 6.90432C19.1318 6.7047 19.0126 6.52715 18.8523 6.39175C18.692 6.25634 18.497 6.16847 18.2893 6.13807L18.2863 6.13907ZM13.3863 11.0881L14.2193 15.9531L9.85033 13.6531L5.48133 15.9531L6.31433 11.0881L2.77333 7.64407L7.65933 6.93407L9.84333 2.50507L12.0293 6.93407L16.9153 7.64407L13.3793 11.0891L13.3863 11.0881Z" fill="#FFA700"/>
</svg>
