<svg width="37" height="50" viewBox="0 0 37 50" fill="none" xmlns="http://www.w3.org/2000/svg">
<path d="M3.37476 49.999C2.93181 49.9993 2.49307 49.9124 2.08374 49.7432C1.67441 49.5739 1.30241 49.3257 0.989014 49.0127C0.675616 48.6997 0.42732 48.3276 0.257568 47.9185C0.0878166 47.5093 1.84253e-05 47.0709 -0.000244141 46.6279V39.8809C1.84253e-05 39.4379 0.0878166 38.9995 0.257568 38.5903C0.42732 38.1812 0.675616 37.8096 0.989014 37.4966C1.30241 37.1836 1.67441 36.9354 2.08374 36.7661C2.49307 36.5969 2.93181 36.51 3.37476 36.5103C3.81748 36.5101 4.25575 36.5972 4.66479 36.7666C5.07384 36.936 5.44549 37.184 5.75854 37.4971C6.0716 37.8101 6.31965 38.1818 6.48901 38.5908C6.65838 38.9999 6.74598 39.4381 6.74585 39.8809V43.2529H30.1023V39.8809C30.1022 39.4381 30.1897 38.9999 30.3591 38.5908C30.5286 38.1817 30.7774 37.8097 31.0906 37.4966C31.4037 37.1835 31.7752 36.9354 32.1843 36.7661C32.5935 36.5968 33.0316 36.51 33.4744 36.5103C33.9171 36.5101 34.3563 36.5972 34.7654 36.7666C35.1744 36.936 35.5461 37.184 35.8591 37.4971C36.1722 37.8101 36.4202 38.1818 36.5896 38.5908C36.759 38.9999 36.8456 39.4381 36.8455 39.8809V46.6279C36.8456 47.0707 36.759 47.5089 36.5896 47.918C36.4202 48.327 36.1722 48.6992 35.8591 49.0122C35.5461 49.3253 35.1744 49.5733 34.7654 49.7427C34.3563 49.912 33.9171 49.9992 33.4744 49.999H3.37476ZM16.9871 37.1851L0.595459 20.793C0.406551 20.6058 0.256388 20.3831 0.154053 20.1377C0.0517179 19.8923 -0.000244141 19.6287 -0.000244141 19.3628C-0.000244141 19.0969 0.0517179 18.8338 0.154053 18.5884C0.256388 18.3429 0.406551 18.1203 0.595459 17.9331L2.46558 16.063C2.65629 15.8729 2.88313 15.7226 3.13257 15.6211C3.382 15.5196 3.64943 15.4692 3.9187 15.4722C4.18797 15.4752 4.4538 15.5317 4.70093 15.6387C4.94806 15.7456 5.17169 15.9009 5.35815 16.0952L15.0388 26.2549V2.02491C15.0382 1.75906 15.0897 1.49575 15.1912 1.25001C15.2926 1.00427 15.4417 0.781252 15.6296 0.593268C15.8176 0.405284 16.0411 0.256223 16.2869 0.154791C16.5326 0.0533597 16.7954 0.0012998 17.0613 0.00195931H19.7615C20.0274 0.00130074 20.291 0.053384 20.5369 0.154791C20.7827 0.256199 21.0059 0.404822 21.1941 0.59278C21.3822 0.780738 21.5319 1.00426 21.6335 1.25001C21.7352 1.49576 21.7873 1.75896 21.7869 2.02491V26.2549L31.4646 16.0952C31.6503 15.8994 31.8735 15.7427 32.1208 15.6348C32.3682 15.5269 32.6342 15.4698 32.9041 15.4668C33.1739 15.4638 33.4415 15.5153 33.6912 15.6177C33.9408 15.7201 34.1682 15.8714 34.3582 16.063L36.2312 17.9331C36.4194 18.1207 36.5678 18.3435 36.6697 18.5889C36.7716 18.8343 36.824 19.0971 36.824 19.3628C36.824 19.6285 36.7716 19.8918 36.6697 20.1372C36.5678 20.3826 36.4194 20.6054 36.2312 20.793L19.8464 37.1851C19.6586 37.3734 19.4359 37.5228 19.1902 37.6245C18.9444 37.7263 18.6808 37.7782 18.4148 37.7778C18.1492 37.7785 17.8865 37.7262 17.6414 37.624C17.3962 37.5219 17.1737 37.3721 16.9871 37.1831V37.1851Z" fill="#D3DCE3"/>
</svg>
